<svg width="56" height="37" viewBox="0 0 56 37" fill="none" xmlns="http://www.w3.org/2000/svg">
<path d="M20.0728 13.918V18.1989H22.1797C21.1601 16.9838 20.4461 15.5168 20.0728 13.918Z" fill="white"/>
<path d="M29.0398 21.7777C27.2011 21.62 25.5001 20.9653 24.0721 19.9457H20.0728V22.3641H29.0398V21.7777Z" fill="white"/>
<path d="M6.73336 17.5605H3.87036V19.4938H6.73336V17.5605Z" fill="white"/>
<path d="M11.4885 25.2606C8.34784 25.2606 5.77417 27.8319 5.77417 31.0273C5.77417 34.1968 8.34784 36.7941 11.4885 36.7941C14.6548 36.7941 17.2028 34.1968 17.2028 31.0273C17.2028 27.8319 14.6548 25.2606 11.4885 25.2606ZM11.4885 34.8726C9.38617 34.8726 7.67817 33.1489 7.67817 31.0273C7.67817 28.9057 9.38617 27.182 11.4885 27.182C13.5908 27.182 15.2988 28.9057 15.2988 31.0273C15.2988 33.1513 13.5932 34.8726 11.4885 34.8726Z" fill="white"/>
<path d="M11.4887 29.106C10.4504 29.106 9.58472 29.9537 9.58472 31.0274C9.58472 32.0753 10.4504 32.9489 11.4887 32.9489C12.5527 32.9489 13.3927 32.0753 13.3927 31.0274C13.395 29.9537 12.5527 29.106 11.4887 29.106Z" fill="white"/>
<path d="M40.7276 0.396905C40.7276 0.34981 40.6973 0.312134 40.66 0.312134H36.4436C36.4063 0.312134 36.376 0.34981 36.376 0.396905V1.77914H40.7276V0.396905Z" fill="white"/>
<path d="M48.0613 3.1636V4.54348V11.1862V20.0236C52.2869 19.5856 55.5909 15.971 55.5909 11.5936C55.5933 7.21376 52.2869 3.60159 48.0613 3.1636Z" fill="white"/>
<path d="M29.0397 20.0212V8.51358V5.0474V4.80721V4.54348V3.1636C24.8163 3.60159 21.51 7.21376 21.51 11.5912C21.51 15.971 24.8163 19.5832 29.0397 20.0212Z" fill="white"/>
<path d="M46.3279 11.1861V8.78664V5.04731V4.54339V3.11877H30.7739V4.54339V4.80712V5.04731V8.51349V20.0658H46.3279V11.1861Z" fill="white"/>
<path d="M36.3763 22.3668H46.3279V21.8158H30.7739V22.3668H34.2739H36.3763Z" fill="white"/>
<path d="M23.7387 32.9442H32.6007L33.1164 31.0204H23.2207L23.7387 32.9442Z" fill="white"/>
<path d="M43.8962 29.106C42.8322 29.106 41.9922 29.9537 41.9922 31.0274C41.9922 32.0753 42.8322 32.9489 43.8962 32.9489C44.9345 32.9489 45.8002 32.0753 45.8002 31.0274C45.8002 29.9537 44.9345 29.106 43.8962 29.106Z" fill="white"/>
<path d="M40.2096 24.2879H35.4356L33.0393 29.0986H36.5253C37.048 27.0288 38.406 25.3098 40.2096 24.2879Z" fill="white"/>
<path d="M43.8962 25.2606C40.7299 25.2606 38.1819 27.8319 38.1819 31.0273C38.1819 34.1968 40.7299 36.7941 43.8962 36.7941C47.0369 36.7941 49.6106 34.1968 49.6106 31.0273C49.6106 27.8319 47.0369 25.2606 43.8962 25.2606ZM43.8962 34.8726C41.7939 34.8726 40.0859 33.1489 40.0859 31.0273C40.0859 28.9057 41.7939 27.182 43.8962 27.182C45.9986 27.182 47.7066 28.9057 47.7066 31.0273C47.7042 33.1513 45.9986 34.8726 43.8962 34.8726Z" fill="white"/>
<path d="M3.87036 12.7545V15.6367H6.73336C7.78336 15.6367 8.63969 16.4985 8.63969 17.5605V19.4938H14.361V9.85815H6.74036C5.15603 9.85815 3.87036 11.1556 3.87036 12.7545Z" fill="white"/>
<path d="M33.3076 24.2879H19.3076C18.6636 24.2879 18.1689 23.7628 18.1689 23.1388V6.01276H6.74026C3.05359 6.01276 0.0622559 9.03389 0.0622559 12.752V31.9761H3.94492C3.89592 31.6771 3.87026 31.3521 3.87026 31.0272C3.87026 26.7839 7.28392 23.3389 11.4886 23.3389C15.0236 23.3389 18.0126 25.7808 18.8573 29.0963H30.9369L33.3076 24.2879ZM16.2649 20.2684C16.2649 20.8924 15.7703 21.4175 15.1263 21.4175H3.10259C2.45859 21.4175 1.96392 20.8924 1.96392 20.2684V12.7544C1.96392 10.1077 4.09192 7.93658 6.73792 7.93658H15.1239C15.7679 7.93658 16.2626 8.46169 16.2626 9.08569V20.2684H16.2649Z" fill="white"/>
</svg>
