<svg width="71" height="72" viewBox="0 0 71 72" fill="none" xmlns="http://www.w3.org/2000/svg">
<path d="M35.6348 0.882324C16.3554 0.882324 0.428955 16.7936 0.428955 36.0546C0.428955 55.3156 16.076 71.2268 35.6348 71.2268C54.9142 71.2268 70.8407 55.5947 70.8407 36.0546C70.8407 16.7936 55.1936 0.882324 35.6348 0.882324ZM66.0907 34.1006C66.0907 34.6588 66.0907 35.4963 66.0907 36.0546C66.0907 36.6129 66.0907 37.4503 66.0907 38.0086C65.8112 38.2877 65.2524 38.2877 64.973 38.2877C63.5759 38.2877 62.7377 37.1712 62.7377 36.0546C62.7377 34.6589 63.8554 33.8214 64.973 33.8214C65.2524 33.8214 65.5318 33.8214 66.0907 34.1006ZM65.5318 31.3091C65.2524 31.3091 64.973 31.3091 64.6936 31.3091C63.576 31.3091 62.7377 31.5883 61.8995 32.1465C60.223 20.7016 51.0024 11.4898 39.5466 9.81496C40.1054 8.97752 40.3848 8.14009 40.3848 7.02351C40.3848 6.74437 40.3848 6.46522 40.3848 6.18608C53.5171 8.14009 63.5759 18.4684 65.5318 31.3091ZM37.5907 66.2022C37.0319 66.2022 36.1936 66.2022 35.6348 66.2022C35.076 66.2022 34.2377 66.2022 33.6789 66.2022C33.3995 65.9231 33.3995 65.3648 33.3995 65.0856C33.3995 63.6899 34.5172 62.8525 35.6348 62.8525C36.7524 62.8525 37.8701 63.9691 37.8701 65.0856C37.8701 65.6439 37.8701 65.9231 37.5907 66.2022ZM38.7083 61.4568C37.8701 60.6193 36.7524 60.3402 35.6348 60.3402C34.5172 60.3402 33.3995 60.8985 32.5613 61.4568C21.1054 60.061 11.8848 50.8492 10.4878 39.4043C11.326 38.5669 11.6054 37.4503 11.6054 36.3337C11.6054 35.2171 11.0466 34.1006 10.4878 33.2631C11.8848 21.8182 21.1054 12.6064 32.5613 11.2107C33.3995 12.0481 34.5172 12.3273 35.6348 12.3273C36.7524 12.3273 37.8701 11.769 38.7083 11.2107C50.1642 12.6064 59.3848 21.8182 60.7818 33.2631C59.9436 34.1006 59.6642 35.2171 59.6642 36.3337C59.6642 37.4503 60.223 38.5669 60.7818 39.4043C59.6642 50.8492 50.4436 60.061 38.7083 61.4568ZM35.6348 5.62779C36.1936 5.62779 37.0319 5.62779 37.5907 5.62779C37.8701 5.90693 37.8701 6.46522 37.8701 6.74437C37.8701 8.14009 36.7524 8.97752 35.6348 8.97752C34.5172 8.97752 33.3995 7.86095 33.3995 6.74437C33.3995 6.18608 33.3995 5.90693 33.6789 5.62779C34.2377 5.62779 35.076 5.62779 35.6348 5.62779ZM30.8848 6.18608C30.8848 6.46522 30.8848 6.74437 30.8848 7.02351C30.8848 8.14009 31.1642 8.97752 31.723 9.81496C20.2672 11.4898 11.326 20.7016 9.37012 32.1465C8.53189 31.5883 7.69365 31.3091 6.57601 31.3091C6.2966 31.3091 6.01718 31.3091 5.73777 31.3091C7.69365 18.4684 18.0319 8.14009 30.8848 6.18608ZM5.45836 38.0086C5.45836 37.4503 5.45836 36.6129 5.45836 36.0546C5.45836 35.4963 5.45836 34.6588 5.45836 34.1006C5.73777 33.8214 6.2966 33.8214 6.57601 33.8214C7.97306 33.8214 8.8113 34.938 8.8113 36.0546C8.8113 37.4503 7.69365 38.2877 6.57601 38.2877C6.01718 38.2877 5.73777 38.2877 5.45836 38.0086ZM5.73777 40.8C6.01718 40.8 6.2966 40.8 6.57601 40.8C7.69365 40.8 8.53189 40.5209 9.37012 39.9626C11.0466 51.4075 20.2672 60.6193 31.723 62.2942C31.1642 63.1316 30.8848 63.9691 30.8848 65.0856C30.8848 65.3648 30.8848 65.6439 30.8848 65.9231C18.0319 63.9691 7.69365 53.6407 5.73777 40.8ZM40.6642 65.9231C40.6642 65.6439 40.6642 65.3648 40.6642 65.0856C40.6642 63.9691 40.3848 63.1316 39.826 62.2942C51.2818 60.6193 60.223 51.4075 62.1789 39.9626C63.0171 40.5209 63.8554 40.8 64.973 40.8C65.2524 40.8 65.5318 40.8 65.8112 40.8C63.576 53.6407 53.5171 63.9691 40.6642 65.9231Z" fill="#6AB13D"/>
</svg>
