<svg width="117" height="117" viewBox="0 0 117 117" fill="none" xmlns="http://www.w3.org/2000/svg">
<path d="M58.5404 0.648438C26.891 0.648438 0.74585 26.7686 0.74585 58.3878C0.74585 90.007 26.4323 116.127 58.5404 116.127C90.1898 116.127 116.335 90.4653 116.335 58.3878C116.335 26.7686 90.6485 0.648438 58.5404 0.648438ZM108.537 55.1801C108.537 56.0966 108.537 57.4713 108.537 58.3878C108.537 59.3043 108.537 60.6791 108.537 61.5956C108.079 62.0538 107.161 62.0538 106.703 62.0538C104.409 62.0538 103.033 60.2208 103.033 58.3878C103.033 56.0966 104.868 54.7218 106.703 54.7218C107.161 54.7218 107.62 54.7218 108.537 55.1801ZM107.62 50.5976C107.161 50.5976 106.703 50.5976 106.244 50.5976C104.409 50.5976 103.033 51.0558 101.657 51.9723C98.9048 33.1841 83.7682 18.0619 64.962 15.3124C65.8794 13.9377 66.3381 12.5629 66.3381 10.7299C66.3381 10.2717 66.3381 9.81342 66.3381 9.35517C87.8964 12.5629 104.409 29.5181 107.62 50.5976ZM61.7512 107.879C60.8338 107.879 59.4578 107.879 58.5404 107.879C57.623 107.879 56.247 107.879 55.3296 107.879C54.8709 107.42 54.8709 106.504 54.8709 106.046C54.8709 103.754 56.7057 102.38 58.5404 102.38C60.3751 102.38 62.2099 104.213 62.2099 106.046C62.2099 106.962 62.2099 107.42 61.7512 107.879ZM63.586 100.089C62.2099 98.7138 60.3751 98.2555 58.5404 98.2555C56.7057 98.2555 54.8709 99.172 53.4948 100.089C34.6887 97.7973 19.552 82.675 17.2586 63.8868C18.6346 62.5121 19.0933 60.6791 19.0933 58.8461C19.0933 57.0131 18.176 55.1801 17.2586 53.8053C19.552 35.0171 34.6887 19.8949 53.4948 17.6037C54.8709 18.9784 56.7057 19.4367 58.5404 19.4367C60.3751 19.4367 62.2099 18.5202 63.586 17.6037C82.3921 19.8949 97.5288 35.0171 99.8222 53.8053C98.4462 55.1801 97.9875 57.0131 97.9875 58.8461C97.9875 60.6791 98.9048 62.5121 99.8222 63.8868C97.9875 82.675 82.8508 97.7973 63.586 100.089ZM58.5404 8.43867C59.4578 8.43867 60.8338 8.43867 61.7512 8.43867C62.2099 8.89692 62.2099 9.81342 62.2099 10.2717C62.2099 12.5629 60.3751 13.9377 58.5404 13.9377C56.7057 13.9377 54.8709 12.1047 54.8709 10.2717C54.8709 9.35517 54.8709 8.89692 55.3296 8.43867C56.247 8.43867 57.623 8.43867 58.5404 8.43867ZM50.7427 9.35517C50.7427 9.81342 50.7427 10.2717 50.7427 10.7299C50.7427 12.5629 51.2014 13.9377 52.1188 15.3124C33.3126 18.0619 18.6346 33.1841 15.4238 51.9723C14.0478 51.0558 12.6717 50.5976 10.837 50.5976C10.3783 50.5976 9.91959 50.5976 9.4609 50.5976C12.6717 29.5181 29.6431 12.5629 50.7427 9.35517ZM9.00221 61.5956C9.00221 60.6791 9.00221 59.3043 9.00221 58.3878C9.00221 57.4713 9.00221 56.0966 9.00221 55.1801C9.4609 54.7218 10.3783 54.7218 10.837 54.7218C13.1304 54.7218 14.5065 56.5548 14.5065 58.3878C14.5065 60.6791 12.6717 62.0538 10.837 62.0538C9.91959 62.0538 9.4609 62.0538 9.00221 61.5956ZM9.4609 66.1781C9.91959 66.1781 10.3783 66.1781 10.837 66.1781C12.6717 66.1781 14.0478 65.7198 15.4238 64.8033C18.176 83.5915 33.3126 98.7138 52.1188 101.463C51.2014 102.838 50.7427 104.213 50.7427 106.046C50.7427 106.504 50.7427 106.962 50.7427 107.42C29.6431 104.213 12.6717 87.2575 9.4609 66.1781ZM66.7968 107.42C66.7968 106.962 66.7968 106.504 66.7968 106.046C66.7968 104.213 66.3381 102.838 65.4207 101.463C84.2269 98.7138 98.9048 83.5915 102.116 64.8033C103.492 65.7198 104.868 66.1781 106.703 66.1781C107.161 66.1781 107.62 66.1781 108.079 66.1781C104.409 87.2575 87.8964 104.213 66.7968 107.42Z" fill="white"/>
</svg>
