<svg width="30" height="31" viewBox="0 0 30 31" fill="none" xmlns="http://www.w3.org/2000/svg">
<g id="icon/device/access_time_24px">
<path id="icon/device/access_time_24px_2" fill-rule="evenodd" clip-rule="evenodd" d="M14.9875 2.5459C8.0875 2.5459 2.5 8.1459 2.5 15.0459C2.5 21.9459 8.0875 27.5459 14.9875 27.5459C21.9 27.5459 27.5 21.9459 27.5 15.0459C27.5 8.1459 21.9 2.5459 14.9875 2.5459ZM15 25.0459C9.475 25.0459 5 20.5709 5 15.0459C5 9.5209 9.475 5.0459 15 5.0459C20.525 5.0459 25 9.5209 25 15.0459C25 20.5709 20.525 25.0459 15 25.0459ZM14.65 8.7959H14.725C15.225 8.7959 15.625 9.1959 15.625 9.6959V15.3709L20.4625 18.2459C20.9 18.4959 21.0375 19.0584 20.775 19.4834C20.525 19.9084 19.975 20.0334 19.55 19.7834L14.3625 16.6709C13.975 16.4459 13.75 16.0334 13.75 15.5959V9.6959C13.75 9.1959 14.15 8.7959 14.65 8.7959Z" fill="#6AB13D"/>
</g>
</svg>
