<svg width="42" height="59" viewBox="0 0 42 59" fill="none" xmlns="http://www.w3.org/2000/svg">
<path d="M7.87905 8.39493H1.40536L7.87905 1.96986V8.39493ZM40.2475 0.899017H10.0369V3.04071H38.6291C38.9268 3.04071 39.1685 3.28058 39.1685 3.57613V49.6225C39.1685 49.918 38.9268 50.1579 38.6291 50.1579H33.7738V52.2996H40.2475C40.843 52.2996 41.3264 51.8198 41.3264 51.2287V1.96986C41.3264 1.37876 40.843 0.899017 40.2475 0.899017ZM2.48431 49.6225V10.5366H0.326416V51.2287C0.326416 51.8198 0.809784 52.2996 1.40536 52.2996H20.8264V50.1579H3.02378C2.726 50.1579 2.48431 49.918 2.48431 49.6225ZM3.56326 10.5366H8.958C9.55357 10.5366 10.0369 10.0569 10.0369 9.46578V4.11155H38.0896V49.087H34.8527V48.0162V45.1281L36.8294 42.1854L37.2286 41.5911L36.8294 40.9968L34.8527 38.0541V35.166V34.0952H33.7738H30.8639L27.8989 32.1334L27.3001 31.7372L26.7013 32.1334L23.7363 34.0952H20.8264H19.7475V35.166V38.0541L17.7708 40.9968L17.3716 41.5911L17.7708 42.1854L19.7475 45.1281V48.0162V49.087H3.56326V10.5366ZM13.2738 11.6075C13.2738 12.1986 13.7572 12.6783 14.3527 12.6783H33.7738C34.3704 12.6783 34.8527 12.1986 34.8527 11.6075C34.8527 11.0164 34.3704 10.5366 33.7738 10.5366H14.3527C13.7572 10.5366 13.2738 11.0164 13.2738 11.6075ZM6.8001 16.9617C6.8001 17.5528 7.28347 18.0325 7.87905 18.0325H33.7738C34.3704 18.0325 34.8527 17.5528 34.8527 16.9617C34.8527 16.3706 34.3704 15.8908 33.7738 15.8908H7.87905C7.28347 15.8908 6.8001 16.3706 6.8001 16.9617ZM6.8001 22.3159C6.8001 22.907 7.28347 23.3868 7.87905 23.3868H33.7738C34.3704 23.3868 34.8527 22.907 34.8527 22.3159C34.8527 21.7248 34.3704 21.2451 33.7738 21.2451H7.87905C7.28347 21.2451 6.8001 21.7248 6.8001 22.3159ZM6.8001 27.6701C6.8001 28.2612 7.28347 28.741 7.87905 28.741H29.458C30.0547 28.741 30.5369 28.2612 30.5369 27.6701C30.5369 27.079 30.0547 26.5993 29.458 26.5993H7.87905C7.28347 26.5993 6.8001 27.079 6.8001 27.6701ZM27.3001 51.445L23.7363 49.087H21.9054V57.611C21.9054 58.0596 22.4287 58.3091 22.7815 58.0286L27.3001 54.4413L31.8187 58.0286C32.1715 58.3091 32.6948 58.0596 32.6948 57.611V49.087H30.8639L27.3001 51.445ZM20.8264 48.0162V44.8037L18.6685 41.5911L20.8264 38.3786V35.166H24.0633L27.3001 33.0244L30.5369 35.166H33.7738V38.3786L35.9317 41.5911L33.7738 44.8037V48.0162H30.5369L27.3001 50.1579L24.0633 48.0162H20.8264ZM22.4448 41.5911C22.4448 44.2522 24.6189 46.4099 27.3001 46.4099C29.9813 46.4099 32.1554 44.2522 32.1554 41.5911C32.1554 38.9301 29.9813 36.7723 27.3001 36.7723C24.6189 36.7723 22.4448 38.9301 22.4448 41.5911Z" fill="white"/>
</svg>
