<svg width="226" height="106" viewBox="0 0 226 106" fill="none" xmlns="http://www.w3.org/2000/svg">
<g filter="url(#filter0_d)">
<rect x="20.5229" y="16.4917" width="185" height="65" rx="5" fill="white"/>
</g>
<path d="M87.2003 58.1948L85.331 63.0267H84.7079L83.2125 59.0621L81.717 63.0267H81.0939L79.2246 58.1948H79.8477L81.3432 62.2833L82.8386 58.1948H83.3371L84.8325 62.2833L86.328 58.1948H87.2003Z" fill="#292338"/>
<path d="M94.8025 60.7962H90.8146C90.8146 61.2918 91.0639 61.6635 91.4377 62.0352C91.8116 62.283 92.1855 62.5307 92.8086 62.5307C93.0578 62.5307 93.4317 62.5307 93.6809 62.4069C93.9301 62.283 94.1794 62.1591 94.304 61.9113L94.6779 62.283C94.4286 62.5307 94.1794 62.7785 93.9301 62.9024C93.5563 63.0263 93.307 63.1502 92.9332 63.1502C92.4347 63.1502 92.0608 63.0263 91.5624 62.7785C91.1885 62.5307 90.9393 62.283 90.69 61.9113C90.4408 61.5396 90.3162 61.1679 90.3162 60.6723C90.3162 60.1768 90.4408 59.8051 90.5654 59.4334C90.8146 59.0617 91.0639 58.8139 91.4377 58.5661C91.8116 58.3184 92.1855 58.3184 92.6839 58.3184C93.1824 58.3184 93.5563 58.4423 93.9301 58.5661C94.304 58.8139 94.5532 59.0617 94.8025 59.4334C95.0517 59.8051 95.0517 60.1768 95.0517 60.6723L94.8025 60.7962ZM91.3131 59.0617C90.9393 59.3095 90.8146 59.6812 90.8146 60.1768H94.1794C94.1794 59.6812 93.9301 59.3095 93.6809 59.0617C93.307 58.8139 92.9332 58.5661 92.5593 58.5661C92.0608 58.69 91.687 58.8139 91.3131 59.0617Z" fill="#292338"/>
<path d="M105.645 60.5487L104.523 61.5398V62.9027H103.9V56.2124H104.523V60.7965L107.389 58.1947H108.137L106.018 60.177L108.262 63.0266H107.514L105.645 60.5487Z" fill="#292338"/>
<path d="M115.988 60.7962H112C112 61.2918 112.249 61.6635 112.623 62.0352C112.997 62.283 113.371 62.5307 113.994 62.5307C114.243 62.5307 114.617 62.5307 114.866 62.4069C115.115 62.283 115.365 62.1591 115.489 61.9113L115.863 62.283C115.614 62.5307 115.365 62.7785 115.115 62.9024C114.742 63.0263 114.492 63.1502 114.118 63.1502C113.62 63.1502 113.246 63.0263 112.748 62.7785C112.374 62.5307 112.125 62.283 111.875 61.9113C111.626 61.5396 111.501 61.1679 111.501 60.6723C111.501 60.1768 111.626 59.8051 111.751 59.4334C112 59.0617 112.249 58.8139 112.623 58.5661C112.997 58.3184 113.371 58.3184 113.869 58.3184C114.368 58.3184 114.742 58.4423 115.115 58.5661C115.489 58.8139 115.739 59.0617 115.988 59.4334C116.237 59.8051 116.237 60.1768 116.237 60.6723L115.988 60.7962ZM112.498 59.0617C112.125 59.3095 112 59.6812 112 60.1768H115.365C115.365 59.6812 115.115 59.3095 114.866 59.0617C114.492 58.8139 114.118 58.5661 113.745 58.5661C113.246 58.69 112.748 58.8139 112.498 59.0617Z" fill="#292338"/>
<path d="M124.213 60.7962H120.225C120.225 61.2918 120.474 61.6635 120.848 62.0352C121.222 62.283 121.596 62.5307 122.219 62.5307C122.468 62.5307 122.842 62.5307 123.091 62.4069C123.341 62.283 123.59 62.1591 123.714 61.9113L124.088 62.283C123.839 62.5307 123.59 62.7785 123.341 62.9024C122.967 63.0263 122.717 63.1502 122.344 63.1502C121.845 63.1502 121.471 63.0263 120.973 62.7785C120.599 62.5307 120.35 62.283 120.1 61.9113C119.851 61.5396 119.727 61.1679 119.727 60.6723C119.727 60.1768 119.851 59.8051 119.976 59.4334C120.225 59.0617 120.474 58.8139 120.848 58.5661C121.222 58.3184 121.596 58.3184 122.094 58.3184C122.593 58.3184 122.967 58.4423 123.341 58.5661C123.714 58.8139 123.964 59.0617 124.213 59.4334C124.462 59.8051 124.462 60.1768 124.462 60.6723L124.213 60.7962ZM120.599 59.0617C120.225 59.3095 120.1 59.6812 120.1 60.1768H123.465C123.465 59.6812 123.216 59.3095 122.967 59.0617C122.593 58.8139 122.219 58.5661 121.845 58.5661C121.347 58.69 120.973 58.8139 120.599 59.0617Z" fill="#292338"/>
<path d="M131.815 58.4425C132.189 58.6903 132.438 58.9381 132.687 59.3097C132.936 59.6814 132.936 60.0531 132.936 60.5487C132.936 61.0443 132.812 61.4159 132.687 61.7876C132.438 62.1593 132.189 62.4071 131.815 62.6549C131.441 62.9027 131.067 62.9027 130.568 62.9027C130.195 62.9027 129.821 62.7788 129.571 62.6549C129.198 62.531 128.948 62.2832 128.824 61.9115V64.6372H128.201V58.0708H128.824V59.0619C129.073 58.6903 129.322 58.4425 129.571 58.3186C129.945 58.1947 130.195 58.0708 130.693 58.0708C131.067 58.0708 131.441 58.1947 131.815 58.4425ZM131.441 62.1593C131.69 62.0354 131.939 61.7876 132.064 61.5398C132.189 61.292 132.313 60.9204 132.313 60.5487C132.313 60.177 132.189 59.8053 132.064 59.5575C131.939 59.3097 131.69 59.062 131.441 58.9381C131.192 58.8142 130.942 58.6903 130.568 58.6903C130.195 58.6903 129.945 58.8142 129.696 58.9381C129.447 59.062 129.198 59.3097 129.073 59.5575C128.948 59.8053 128.824 60.177 128.824 60.5487C128.824 60.9204 128.948 61.292 129.073 61.5398C129.198 61.7876 129.447 62.0354 129.696 62.1593C129.945 62.2832 130.319 62.4071 130.568 62.4071C130.942 62.4071 131.192 62.2832 131.441 62.1593Z" fill="#292338"/>
<path d="M145.772 58.4425C146.146 58.6903 146.395 58.9381 146.645 59.3097C146.894 59.6814 146.894 60.0531 146.894 60.5487C146.894 61.0443 146.769 61.4159 146.645 61.7876C146.395 62.1593 146.146 62.4071 145.772 62.6549C145.398 62.9027 145.024 62.9027 144.526 62.9027C144.152 62.9027 143.778 62.7788 143.529 62.6549C143.155 62.531 142.906 62.2832 142.781 61.9115V64.6372H142.158V58.0708H142.781V59.0619C143.031 58.6903 143.28 58.4425 143.529 58.3186C143.903 58.1947 144.152 58.0708 144.651 58.0708C144.9 58.0708 145.398 58.1947 145.772 58.4425ZM145.398 62.1593C145.648 62.0354 145.897 61.7876 146.021 61.5398C146.146 61.292 146.271 60.9204 146.271 60.5487C146.271 60.177 146.146 59.8053 146.021 59.5575C145.897 59.3097 145.648 59.062 145.398 58.9381C145.149 58.8142 144.775 58.6903 144.526 58.6903C144.152 58.6903 143.903 58.8142 143.654 58.9381C143.404 59.062 143.155 59.3097 143.031 59.5575C142.906 59.8053 142.781 60.177 142.781 60.5487C142.781 60.9204 142.906 61.292 143.031 61.5398C143.155 61.7876 143.404 62.0354 143.654 62.1593C143.903 62.2832 144.277 62.4071 144.526 62.4071C144.775 62.4071 145.149 62.2832 145.398 62.1593Z" fill="#292338"/>
<path d="M155.243 58.1948V63.0267H154.62V62.1594C154.496 62.4072 154.246 62.655 153.872 62.7789C153.623 62.9028 153.249 63.0267 152.876 63.0267C152.252 63.0267 151.754 62.9028 151.38 62.5311C151.006 62.1594 150.882 61.6639 150.882 61.0444V58.3187H151.505V61.0444C151.505 61.54 151.629 61.9116 151.879 62.1594C152.128 62.4072 152.502 62.5311 153 62.5311C153.499 62.5311 153.872 62.4072 154.246 62.0355C154.496 61.7877 154.745 61.2922 154.745 60.7966V58.3187H155.243V58.1948Z" fill="#292338"/>
<path d="M160.976 58.3186C161.225 58.1947 161.599 58.0708 162.097 58.0708V58.6903H161.973C161.474 58.6903 161.1 58.8142 160.726 59.1858C160.353 59.5575 160.353 59.9292 160.353 60.4248V62.9027H159.729V58.0708H160.353V59.0619C160.477 58.8142 160.726 58.5664 160.976 58.3186Z" fill="#292338"/>
<path d="M165.961 56.9556C165.836 56.8317 165.836 56.7078 165.836 56.584C165.836 56.4601 165.836 56.3362 165.961 56.2123C166.085 56.0884 166.21 56.0884 166.334 56.0884C166.459 56.0884 166.584 56.0884 166.708 56.2123C166.833 56.3362 166.833 56.4601 166.833 56.584C166.833 56.7078 166.833 56.8317 166.708 56.9556C166.584 57.0795 166.459 57.0795 166.334 57.0795C166.085 57.0795 165.961 57.0795 165.961 56.9556ZM165.961 58.1946H166.584V63.0264H165.961V58.1946Z" fill="#292338"/>
<path d="M173.562 62.6549C173.438 62.7788 173.313 62.9027 173.064 62.9027C172.939 62.9027 172.69 63.0266 172.441 63.0266C171.942 63.0266 171.693 62.9027 171.444 62.6549C171.195 62.4072 171.07 62.0355 171.07 61.6638V58.6903H170.198V58.1948H171.07V57.2036H171.693V58.1948H173.189V58.6903H171.693V61.5399C171.693 61.7877 171.818 62.0355 171.942 62.1594C172.067 62.2833 172.316 62.4072 172.566 62.4072C172.69 62.4072 172.815 62.4072 172.939 62.2833C173.064 62.2833 173.189 62.1594 173.313 62.1594L173.562 62.6549Z" fill="#292338"/>
<path d="M181.289 58.1947L178.921 63.5221C178.672 64.0177 178.547 64.2655 178.298 64.5133C178.049 64.7611 177.675 64.7611 177.426 64.7611C177.176 64.7611 176.927 64.7611 176.802 64.6372C176.553 64.5133 176.429 64.5133 176.304 64.2655L176.553 63.7699C176.802 64.0177 177.052 64.1416 177.426 64.1416C177.675 64.1416 177.799 64.1416 178.049 64.0177C178.173 63.8938 178.298 63.646 178.422 63.3982L178.672 62.9027L176.553 58.0708H177.176L179.046 62.1593L180.915 58.0708H181.289V58.1947Z" fill="#292338"/>
<path d="M89.0699 49.1504H83.2128L82.0912 51.7522H79.1003L84.7082 39.3628H87.5745L93.1824 51.7522H90.1915L89.0699 49.1504ZM88.073 47.0442L86.0791 42.3362L84.0851 47.0442H88.073Z" fill="#294548"/>
<path d="M96.7965 51.2565C95.7996 50.7609 94.9272 49.8936 94.4287 49.0264C93.8056 48.0352 93.5564 46.9202 93.5564 45.6812C93.5564 44.4423 93.8056 43.3273 94.4287 42.3361C95.0518 41.345 95.7996 40.6016 96.7965 40.106C97.7935 39.6105 99.0397 39.2388 100.286 39.2388C101.407 39.2388 102.404 39.4866 103.277 39.8582C104.149 40.2299 104.897 40.7255 105.52 41.4689L103.526 43.0795C102.654 42.0883 101.657 41.5928 100.41 41.5928C99.6628 41.5928 98.9151 41.7166 98.292 42.0883C97.6689 42.46 97.1704 42.9556 96.9211 43.4512C96.5473 44.0706 96.4227 44.6901 96.4227 45.5574C96.4227 46.3007 96.5473 47.0441 96.9211 47.6636C97.295 48.283 97.7935 48.7786 98.292 49.0264C98.9151 49.3981 99.5382 49.522 100.41 49.522C101.657 49.522 102.654 49.0264 103.526 48.0352L105.395 49.7697C104.772 50.5131 104.024 51.0087 103.152 51.3804C102.28 51.752 101.283 51.9998 100.161 51.9998C99.0397 52.1237 97.9181 51.752 96.7965 51.2565Z" fill="#294548"/>
<path d="M120.599 53.239C120.225 53.7346 119.727 54.1063 119.103 54.354C118.48 54.6018 117.857 54.7257 117.234 54.7257C116.362 54.7257 115.489 54.4779 114.742 54.1063C113.994 53.7346 113.122 52.9912 112.125 52.0001C111.003 51.8762 110.006 51.5045 109.134 50.885C108.261 50.2656 107.514 49.5222 107.015 48.6549C106.517 47.7877 106.268 46.6726 106.268 45.5576C106.268 44.3186 106.517 43.2036 107.14 42.2124C107.763 41.2213 108.511 40.4779 109.632 39.8585C110.629 39.3629 111.875 38.9912 113.122 38.9912C114.368 38.9912 115.614 39.239 116.611 39.8585C117.608 40.354 118.48 41.2213 119.103 42.2124C119.727 43.2036 119.976 44.3186 119.976 45.5576C119.976 47.0443 119.602 48.2832 118.73 49.3983C117.857 50.5133 116.86 51.2567 115.489 51.6284C115.739 51.8762 116.113 52.124 116.362 52.2478C116.611 52.3717 116.985 52.4956 117.234 52.4956C117.982 52.4956 118.73 52.2478 119.228 51.6284L120.599 53.239ZM109.757 47.6638C110.131 48.2832 110.505 48.7788 111.128 49.0266C111.751 49.3983 112.374 49.5222 113.122 49.5222C113.869 49.5222 114.493 49.3983 115.116 49.0266C115.739 48.6549 116.237 48.1594 116.486 47.6638C116.736 47.1682 116.985 46.4248 116.985 45.5576C116.985 44.8142 116.86 44.0709 116.486 43.4514C116.113 42.8319 115.739 42.3363 115.116 42.0886C114.493 41.7169 113.869 41.593 113.122 41.593C112.374 41.593 111.751 41.7169 111.128 42.0886C110.505 42.4602 110.006 42.9558 109.757 43.4514C109.383 44.0709 109.258 44.6903 109.258 45.5576C109.258 46.4248 109.383 47.1682 109.757 47.6638Z" fill="#294548"/>
<path d="M123.59 50.6373C122.593 49.6461 122.094 48.2833 122.094 46.4249V39.4868H124.96V46.301C124.96 48.5311 125.833 49.6461 127.702 49.6461C128.574 49.6461 129.322 49.3983 129.821 48.7789C130.319 48.2833 130.568 47.416 130.568 46.301V39.4868H133.435V46.4249C133.435 48.2833 132.936 49.6461 131.939 50.6373C130.942 51.6284 129.571 52.124 127.827 52.124C125.957 52.124 124.587 51.6284 123.59 50.6373Z" fill="#294548"/>
<path d="M144.152 49.1504H138.42L137.298 51.7522H134.307L139.915 39.3628H142.781L148.389 51.7522H145.398L144.152 49.1504ZM143.28 47.0442L141.286 42.3362L139.292 47.0442H143.28Z" fill="#294548"/>
<path d="M157.611 51.8762L155.243 48.4072H155.119H152.626V51.8762H149.635V39.4868H154.994C156.115 39.4868 157.112 39.6107 157.86 39.9824C158.732 40.3541 159.356 40.8496 159.729 41.593C160.228 42.2125 160.353 43.0797 160.353 43.947C160.353 44.8143 160.103 45.6815 159.729 46.301C159.231 46.9204 158.608 47.5399 157.86 47.7877L160.602 51.7523H157.611V51.8762ZM156.863 42.3364C156.365 41.9647 155.742 41.7169 154.869 41.7169H152.502V46.0532H154.869C155.742 46.0532 156.365 45.8054 156.863 45.4337C157.362 45.062 157.486 44.5665 157.486 43.8231C157.611 43.2036 157.362 42.7081 156.863 42.3364Z" fill="#294548"/>
<path d="M162.72 39.4868H165.587V51.8762H162.72V39.4868Z" fill="#294548"/>
<path d="M171.195 51.2567C170.198 50.7611 169.325 49.8939 168.702 48.9027C168.079 47.9116 167.83 46.7965 167.83 45.5576C167.83 44.3186 168.079 43.2036 168.702 42.2124C169.325 41.2213 170.073 40.4779 171.195 39.8585C172.192 39.3629 173.438 38.9912 174.684 38.9912C175.93 38.9912 177.176 39.239 178.173 39.8585C179.17 40.354 180.043 41.2213 180.666 42.2124C181.289 43.2036 181.538 44.3186 181.538 45.5576C181.538 46.7965 181.289 47.9116 180.666 48.9027C180.043 49.8939 179.295 50.6372 178.173 51.2567C177.176 51.7523 175.93 52.124 174.684 52.124C173.313 52.124 172.192 51.7523 171.195 51.2567ZM176.678 49.1505C177.301 48.7788 177.799 48.2832 178.049 47.7877C178.423 47.1682 178.547 46.5487 178.547 45.6815C178.547 44.9381 178.423 44.1948 178.049 43.5753C177.675 42.9558 177.301 42.4602 176.678 42.2124C176.055 41.8408 175.432 41.7169 174.684 41.7169C173.936 41.7169 173.313 41.8408 172.69 42.2124C172.067 42.5841 171.568 43.0797 171.319 43.5753C170.945 44.1948 170.821 44.8142 170.821 45.6815C170.821 46.4248 170.945 47.1682 171.319 47.7877C171.693 48.4071 172.067 48.9027 172.69 49.1505C173.313 49.5222 173.936 49.6461 174.684 49.6461C175.432 49.6461 176.055 49.3983 176.678 49.1505Z" fill="#294548"/>
<path d="M58.164 36.3892C49.5653 36.3892 42.4619 43.4511 42.4619 51.9998C42.4619 60.5485 49.4406 67.6104 58.164 67.6104C66.7628 67.6104 73.8662 60.6723 73.8662 51.9998C73.8662 43.4511 66.8874 36.3892 58.164 36.3892ZM71.7476 51.1325C71.7476 51.3803 71.7476 51.752 71.7476 51.9998C71.7476 52.2476 71.7476 52.6192 71.7476 52.867C71.623 52.9909 71.3738 52.9909 71.2491 52.9909C70.626 52.9909 70.2522 52.4954 70.2522 51.9998C70.2522 51.3803 70.7507 51.0086 71.2491 51.0086C71.3738 51.0086 71.4984 51.0086 71.7476 51.1325ZM71.4984 49.8936C71.3738 49.8936 71.2491 49.8936 71.1245 49.8936C70.626 49.8936 70.2522 50.0175 69.8783 50.2653C69.1306 45.1856 65.0181 41.0971 59.9087 40.3538C60.158 39.9821 60.2826 39.6104 60.2826 39.1148C60.2826 38.9909 60.2826 38.867 60.2826 38.7431C66.1397 39.6104 70.626 44.1945 71.4984 49.8936ZM59.0364 65.3803C58.7871 65.3803 58.4133 65.3803 58.164 65.3803C57.9148 65.3803 57.5409 65.3803 57.2917 65.3803C57.1671 65.2564 57.1671 65.0086 57.1671 64.8847C57.1671 64.2653 57.6656 63.8936 58.164 63.8936C58.6625 63.8936 59.161 64.3892 59.161 64.8847C59.161 65.1325 59.161 65.2564 59.0364 65.3803ZM59.5349 63.2741C59.161 62.9024 58.6625 62.7785 58.164 62.7785C57.6656 62.7785 57.1671 63.0263 56.7932 63.2741C51.6838 62.6546 47.5713 58.5662 46.9482 53.4865C47.3221 53.1148 47.4467 52.6192 47.4467 52.1237C47.4467 51.6281 47.1975 51.1325 46.9482 50.7608C47.5713 45.6812 51.6838 41.5927 56.7932 40.9732C57.1671 41.3449 57.6656 41.4688 58.164 41.4688C58.6625 41.4688 59.161 41.221 59.5349 40.9732C64.6443 41.5927 68.7567 45.6812 69.3798 50.7608C69.006 51.1325 68.8814 51.6281 68.8814 52.1237C68.8814 52.6192 69.1306 53.1148 69.3798 53.4865C68.8814 58.5662 64.7689 62.6546 59.5349 63.2741ZM58.164 38.4954C58.4133 38.4954 58.7871 38.4954 59.0364 38.4954C59.161 38.6192 59.161 38.867 59.161 38.9909C59.161 39.6104 58.6625 39.9821 58.164 39.9821C57.6656 39.9821 57.1671 39.4865 57.1671 38.9909C57.1671 38.7431 57.1671 38.6192 57.2917 38.4954C57.5409 38.4954 57.9148 38.4954 58.164 38.4954ZM56.0455 38.7431C56.0455 38.867 56.0455 38.9909 56.0455 39.1148C56.0455 39.6104 56.1701 39.9821 56.4194 40.3538C51.3099 41.0971 47.3221 45.1856 46.4498 50.2653C46.0759 50.0175 45.702 49.8936 45.2036 49.8936C45.0789 49.8936 44.9543 49.8936 44.8297 49.8936C45.702 44.1945 50.313 39.6104 56.0455 38.7431ZM44.7051 52.867C44.7051 52.6192 44.7051 52.2476 44.7051 51.9998C44.7051 51.752 44.7051 51.3803 44.7051 51.1325C44.8297 51.0086 45.0789 51.0086 45.2036 51.0086C45.8267 51.0086 46.2005 51.5042 46.2005 51.9998C46.2005 52.6192 45.702 52.9909 45.2036 52.9909C44.9543 52.9909 44.8297 52.9909 44.7051 52.867ZM44.8297 54.106C44.9543 54.106 45.0789 54.106 45.2036 54.106C45.702 54.106 46.0759 53.9821 46.4498 53.7343C47.1975 58.8139 51.3099 62.9024 56.4194 63.6458C56.1701 64.0175 56.0455 64.3892 56.0455 64.8847C56.0455 65.0086 56.0455 65.1325 56.0455 65.2564C50.313 64.3892 45.702 59.8051 44.8297 54.106ZM60.4072 65.2564C60.4072 65.1325 60.4072 65.0086 60.4072 64.8847C60.4072 64.3892 60.2826 64.0175 60.0333 63.6458C65.1428 62.9024 69.1306 58.8139 70.0029 53.7343C70.3768 53.9821 70.7507 54.106 71.2491 54.106C71.3738 54.106 71.4984 54.106 71.623 54.106C70.626 59.8051 66.1397 64.3892 60.4072 65.2564Z" fill="#294548"/>
<path d="M59.7842 43.9468H56.5441L49.9392 58.0707H53.0547L58.1641 46.9202L63.3982 58.0707H66.3891L59.7842 43.9468Z" fill="#83B23E"/>
<path d="M57.7904 52L56.2949 55.2212H60.0335L58.5381 52H57.7904Z" fill="#83B23E"/>
<defs>
<filter id="filter0_d" x="0.522949" y="0.491699" width="225" height="105" filterUnits="userSpaceOnUse" color-interpolation-filters="sRGB">
<feFlood flood-opacity="0" result="BackgroundImageFix"/>
<feColorMatrix in="SourceAlpha" type="matrix" values="0 0 0 0 0 0 0 0 0 0 0 0 0 0 0 0 0 0 127 0"/>
<feOffset dy="4"/>
<feGaussianBlur stdDeviation="10"/>
<feColorMatrix type="matrix" values="0 0 0 0 0 0 0 0 0 0 0 0 0 0 0 0 0 0 0.2 0"/>
<feBlend mode="normal" in2="BackgroundImageFix" result="effect1_dropShadow"/>
<feBlend mode="normal" in="SourceGraphic" in2="effect1_dropShadow" result="shape"/>
</filter>
</defs>
</svg>
