<svg width="30" height="31" viewBox="0 0 30 31" fill="none" xmlns="http://www.w3.org/2000/svg">
<g id="icon/content/markunread_24px">
<path id="icon/content/markunread_24px_2" fill-rule="evenodd" clip-rule="evenodd" d="M5 5.0459H25C26.375 5.0459 27.5 6.1709 27.5 7.5459V22.5459C27.5 23.9209 26.375 25.0459 25 25.0459H5C3.625 25.0459 2.5 23.9209 2.5 22.5459V7.5459C2.5 6.1709 3.625 5.0459 5 5.0459ZM16.325 15.4709L24.5 10.3584C24.8125 10.1584 25 9.8209 25 9.4584C25 8.6209 24.0875 8.1209 23.375 8.5584L15 13.7959L6.625 8.5584C5.9125 8.1209 5 8.6209 5 9.4584C5 9.8209 5.1875 10.1584 5.5 10.3584L13.675 15.4709C14.4875 15.9834 15.5125 15.9834 16.325 15.4709Z" fill="#6AB13D"/>
</g>
</svg>
