<svg width="26" height="20" viewBox="0 0 26 20" fill="none" xmlns="http://www.w3.org/2000/svg">
<path fill-rule="evenodd" clip-rule="evenodd" d="M3 0H23C24.375 0 25.5 1.125 25.5 2.5V17.5C25.5 18.875 24.375 20 23 20H3C1.625 20 0.5 18.875 0.5 17.5V2.5C0.5 1.125 1.625 0 3 0ZM14.325 10.425L22.5 5.31251C22.8125 5.1125 23 4.775 23 4.41251C23 3.57501 22.0875 3.07501 21.375 3.51251L13 8.75L4.625 3.51251C3.9125 3.07501 3 3.57501 3 4.41251C3 4.775 3.1875 5.1125 3.5 5.31251L11.675 10.425C12.4875 10.9375 13.5125 10.9375 14.325 10.425Z" fill="#292338"/>
</svg>
