<svg width="30" height="30" viewBox="0 0 30 30" fill="none" xmlns="http://www.w3.org/2000/svg">
<g id="icon/action/room_24px">
<path id="icon/action/room_24px_2" fill-rule="evenodd" clip-rule="evenodd" d="M6.25 11.5811C6.25 6.74355 10.1625 2.83105 15 2.83105C19.8375 2.83105 23.75 6.74355 23.75 11.5811C23.75 16.7936 18.225 23.9811 15.9625 26.7186C15.4625 27.3186 14.55 27.3186 14.05 26.7186C11.775 23.9811 6.25 16.7936 6.25 11.5811ZM11.875 11.5811C11.875 13.3061 13.275 14.7061 15 14.7061C16.725 14.7061 18.125 13.3061 18.125 11.5811C18.125 9.85605 16.725 8.45605 15 8.45605C13.275 8.45605 11.875 9.85605 11.875 11.5811Z" fill="#6AB13D"/>
</g>
</svg>
