<svg width="28" height="27" viewBox="0 0 28 27" fill="none" xmlns="http://www.w3.org/2000/svg">
<path d="M24.9845 18.3839L21.1745 17.9489C20.2595 17.8439 19.3595 18.1589 18.7145 18.8039L15.9545 21.5639C11.7095 19.4039 8.22947 15.9389 6.06947 11.6789L8.84447 8.90391C9.48947 8.25891 9.80447 7.35891 9.69946 6.44391L9.26447 2.66391C9.08447 1.14891 7.80947 0.00891113 6.27947 0.00891113H3.68447C1.98947 0.00891113 0.579465 1.41891 0.684465 3.11391C1.47947 15.9239 11.7245 26.1539 24.5195 26.9489C26.2145 27.0539 27.6245 25.6439 27.6245 23.9489V21.3539C27.6395 19.8389 26.4995 18.5639 24.9845 18.3839Z" fill="white"/>
</svg>
