<svg width="30" height="30" viewBox="0 0 30 30" fill="none" xmlns="http://www.w3.org/2000/svg">
<g id="icon/communication/ring_volume_24px">
<path id="icon/communication/ring_volume_24px_2" fill-rule="evenodd" clip-rule="evenodd" d="M14.9492 9.42871H14.9117C14.2367 9.42871 13.6867 8.87871 13.6867 8.19121V4.40371C13.6867 3.72871 14.2367 3.17871 14.9242 3.17871H14.9617C15.6367 3.17871 16.1867 3.72871 16.1867 4.40371V8.20371C16.1867 8.87871 15.6367 9.42871 14.9492 9.42871ZM22.8117 12.0662C22.3242 12.5537 21.5492 12.5537 21.0617 12.0662L21.0492 12.0412C20.5617 11.5662 20.5617 10.7787 21.0492 10.3037L23.7617 7.61621C24.2367 7.14121 25.0242 7.14121 25.4992 7.61621C25.9867 8.09121 25.9867 8.87871 25.4992 9.35371C24.7117 10.1412 23.5867 11.2787 22.8117 12.0662ZM7.07413 12.0537C7.54913 12.5412 8.33663 12.5412 8.82413 12.0537C9.29913 11.5787 9.29913 10.7912 8.82413 10.3162L6.13663 7.60371C5.66163 7.11621 4.87413 7.11621 4.39913 7.60371L4.37413 7.61621C3.88663 8.10371 3.88663 8.87871 4.37413 9.35371C5.16163 10.1287 6.29913 11.2662 7.07413 12.0537ZM0.949152 20.9662C8.96165 13.8912 21.0367 13.8912 29.0492 20.9662C30.1117 21.9037 30.1117 23.5662 29.1242 24.5662L27.5992 26.0912C26.6992 26.9912 25.2742 27.0662 24.2742 26.2787L21.7867 24.3037C21.1867 23.8287 20.8367 23.1037 20.8367 22.3412V19.0787C17.0492 17.8412 12.9617 17.8537 9.18665 19.0787V22.3287C9.18665 23.0912 8.83665 23.8162 8.23665 24.2912L5.73665 26.2787C4.73665 27.0662 3.31165 26.9912 2.41165 26.0912L0.886652 24.5662C-0.113348 23.5662 -0.113348 21.9037 0.949152 20.9662Z" fill="#6AB13D"/>
</g>
</svg>
