<svg width="30" height="30" viewBox="0 0 30 30" fill="none" xmlns="http://www.w3.org/2000/svg">
<g id="icon/communication/ring_volume_24px">
<path id="icon/communication/ring_volume_24px_2" fill-rule="evenodd" clip-rule="evenodd" d="M14.9492 9.42853H14.9117C14.2367 9.42853 13.6867 8.87853 13.6867 8.19103V4.40353C13.6867 3.72853 14.2367 3.17853 14.9242 3.17853H14.9617C15.6367 3.17853 16.1867 3.72853 16.1867 4.40353V8.20353C16.1867 8.87853 15.6367 9.42853 14.9492 9.42853ZM22.8117 12.066C22.3242 12.5535 21.5492 12.5535 21.0617 12.066L21.0492 12.041C20.5617 11.566 20.5617 10.7785 21.0492 10.3035L23.7617 7.61603C24.2367 7.14103 25.0242 7.14103 25.4992 7.61603C25.9867 8.09103 25.9867 8.87853 25.4992 9.35353C24.7117 10.141 23.5867 11.2785 22.8117 12.066ZM7.07413 12.0535C7.54913 12.541 8.33663 12.541 8.82413 12.0535C9.29913 11.5785 9.29913 10.791 8.82413 10.316L6.13663 7.60353C5.66163 7.11603 4.87413 7.11603 4.39913 7.60353L4.37413 7.61603C3.88663 8.10353 3.88663 8.87853 4.37413 9.35353C5.16163 10.1285 6.29913 11.266 7.07413 12.0535ZM0.949152 20.966C8.96165 13.891 21.0367 13.891 29.0492 20.966C30.1117 21.9035 30.1117 23.566 29.1242 24.566L27.5992 26.091C26.6992 26.991 25.2742 27.066 24.2742 26.2785L21.7867 24.3035C21.1867 23.8285 20.8367 23.1035 20.8367 22.341V19.0785C17.0492 17.841 12.9617 17.8535 9.18665 19.0785V22.3285C9.18665 23.091 8.83665 23.816 8.23665 24.291L5.73665 26.2785C4.73665 27.066 3.31165 26.991 2.41165 26.091L0.886652 24.566C-0.113348 23.566 -0.113348 21.9035 0.949152 20.966Z" fill="#292338"/>
</g>
</svg>
