<svg width="42" height="53" viewBox="0 0 42 53" fill="none" xmlns="http://www.w3.org/2000/svg">
<path d="M12.7367 29.3748C11.9861 29.5804 11.3415 29.886 10.7573 30.2989C10.117 30.7531 9.57662 31.3142 9.15008 31.9671C8.44764 33.0402 8.10606 34.2955 8.16211 35.5972L8.99242 52.1777H33.3096L34.1356 35.6281C34.1443 35.446 34.1461 35.2652 34.1391 35.0848C34.1067 34.1933 33.8746 33.3045 33.4682 32.5147C33.3053 32.1983 33.1126 31.894 32.8954 31.6111C32.4364 30.9961 31.8557 30.4745 31.1717 30.0624C30.944 29.9238 30.6908 29.7956 30.3983 29.6712L30.2582 29.6113C30.0033 29.5091 29.7379 29.4252 29.469 29.3583L29.3455 29.3279L29.1905 29.4031L27.4029 31.1869L27.275 31.3407L27.1953 31.4033L21.9524 36.6195C21.8964 36.6769 21.8351 36.7264 21.7624 36.7743C21.6415 36.8386 21.5942 36.8647 21.5425 36.8842L21.448 36.912C21.3989 36.9268 21.3507 36.9403 21.2991 36.9481L21.1081 36.9677C21.0696 36.9677 21.031 36.9659 20.9916 36.962C20.7114 36.9051 20.5064 36.7942 20.3435 36.6412L19.2382 35.539L18.9973 35.2878L12.9995 29.3131L12.7367 29.3748ZM35.8391 29.3918C35.7664 29.4952 35.713 29.5487 35.6552 29.5839L33.8404 31.3842L34.0664 31.7589C34.147 31.8949 34.1925 31.9718 34.2337 32.0505L34.351 32.2917C34.3957 32.3848 34.4404 32.4782 34.4807 32.5734C34.5157 32.6555 34.5472 32.7386 34.5788 32.822C34.6164 32.9211 34.6523 33.0189 34.6856 33.1189C34.7119 33.201 34.7373 33.284 34.7609 33.3679C34.7925 33.4744 34.8196 33.5792 34.845 33.6852L34.8993 33.9282C34.9221 34.0429 34.9405 34.1572 34.958 34.272L34.9913 34.5006C35.0062 34.6314 35.0149 34.7618 35.0219 34.8927L35.0351 35.0822C35.0421 35.2804 35.0412 35.4768 35.0316 35.6737L34.4824 46.6816H40.6116L41.2948 33.0189C41.4157 30.6279 39.8172 28.4725 37.4945 27.8944L37.371 27.864L35.8391 29.3918ZM4.14194 27.8975C1.82881 28.479 0.237382 30.6331 0.35825 33.0189L1.04142 46.6816H7.8179L7.26612 35.6729C7.25123 35.3695 7.25998 35.0683 7.28276 34.7701L7.29151 34.6493C7.31867 34.3663 7.36334 34.0873 7.42377 33.8117L7.45793 33.6648C7.52362 33.391 7.60507 33.1223 7.70317 32.8589L7.75046 32.7403C7.85819 32.4678 7.97994 32.1996 8.1227 31.941L8.1954 31.7975L8.08679 31.6715L4.26544 27.8662L4.14194 27.8975ZM13.5118 28.2534L13.4996 28.4282L13.5057 28.4812L13.5521 28.5581L13.5985 28.6524L19.6665 34.6927L21.1125 36.1462L21.7361 35.5729L28.7114 28.6181C28.8375 28.4429 28.8218 28.2665 28.714 28.163L27.6087 27.0599L27.4528 27.2677C27.3827 27.362 27.275 27.4259 27.1576 27.4424L27.0412 27.4437L26.9334 27.4315L21.4611 32.8829C21.377 32.9663 21.2614 33.0141 21.1432 33.0141C21.024 33.0141 20.9084 32.9663 20.8252 32.8829L16.5081 28.5833L16.488 28.5538L16.4346 28.5273L16.537 28.6316L15.0638 27.1438L14.9053 27.2798C14.8239 27.3502 14.7223 27.3889 14.6189 27.3889L14.5261 27.3798L14.407 27.3555L13.5118 28.2534ZM17.4838 28.2943L21.1432 31.9375L24.8769 28.2191L23.9485 26.5961L23.7479 26.7287C23.5754 26.843 23.409 26.9482 23.247 27.046L22.5874 27.4254L22.1942 27.6323L21.8517 27.7997L21.4523 27.9783L21.3516 28.0192C21.2999 28.0392 21.2456 28.0491 21.1905 28.0491C21.1335 28.0487 21.0775 28.0383 21.0258 28.0183L20.7166 27.8849L20.4214 27.7466L20.0588 27.5632L19.6297 27.3307C19.5149 27.2659 19.1541 27.0521 19.1541 27.0521C18.9903 26.953 18.8239 26.8478 18.6522 26.7339L18.4517 26.6009L17.4838 28.2943ZM4.73665 27.0008L4.81898 27.1438L8.71478 31.036L8.87243 30.8461C9.11154 30.5566 9.37079 30.2884 9.64318 30.049L9.82098 29.8925L5.79555 25.885L4.73665 27.0008ZM34.4658 27.2598L32.108 29.6108L32.3085 29.7651C32.6081 29.9951 32.884 30.2441 33.1283 30.5049L33.2869 30.674L36.9795 26.9925L35.7918 25.8707L34.4658 27.2598ZM8.10956 26.9304L10.5593 29.3661L10.7126 29.2649C10.9526 29.1258 11.1829 29.0093 11.4194 28.9028L11.535 28.8541C11.796 28.7459 11.9896 28.675 12.1867 28.6129L12.2392 28.5959L12.4065 28.5099L12.6027 28.3112L12.6106 28.2347C12.6316 28.1226 12.6623 28.0222 12.7104 27.9131C12.8129 27.7132 12.8777 27.6223 12.9495 27.5502L13.899 26.5987L13.3542 25.6434L12.8637 25.955C12.6596 26.0789 12.5274 26.1554 12.403 26.2254L11.9581 26.4605L11.747 26.5644L11.3283 26.7539C11.1996 26.8052 11.1453 26.8152 11.0892 26.8152C11.0332 26.8152 10.978 26.8048 10.9246 26.7843L10.4717 26.5826L10.1232 26.4084L9.77719 26.2206C9.65807 26.1537 9.30686 25.942 9.30686 25.942L9.0441 25.7764L8.84353 25.6434L8.10956 26.9304ZM28.0239 26.2714L28.1815 26.3888C28.2288 26.424 28.2752 26.4623 28.3173 26.5044L29.3482 27.5319C29.4016 27.5849 29.4498 27.6414 29.4909 27.7014C29.5566 27.8131 29.5803 27.8501 29.5978 27.8901L29.6319 27.9861C29.6451 28.0209 29.6582 28.0557 29.667 28.0917L29.6827 28.1817C29.6915 28.2339 29.6976 28.2665 29.6994 28.2999L29.7108 28.4573L29.8754 28.5399L30.0304 28.5912C30.1872 28.6385 30.3466 28.6876 30.5017 28.7468L30.7355 28.8472C30.8748 28.9067 31.0018 28.9602 31.1244 29.0215L31.2698 29.094L31.445 29.0067L33.5899 26.8647L32.8945 25.6447L32.4172 25.9459C32.2017 26.0776 32.0668 26.1558 31.9389 26.2271C31.7997 26.304 31.5054 26.4566 31.5054 26.4566L31.2847 26.5657L30.8643 26.7552C30.739 26.8052 30.6847 26.8152 30.6278 26.8152C30.5709 26.8148 30.5157 26.8048 30.4649 26.7848L30.0725 26.6118L29.6626 26.4084L29.3184 26.2219C29.1958 26.1537 29.067 26.078 28.933 25.9963L28.3812 25.6447L28.0239 26.2714ZM15.6699 26.487L16.8261 27.6393L17.2675 26.8695L16.2559 25.8659L15.6699 26.487ZM24.8612 26.3901L25.5338 27.5645L26.2765 26.8243L25.3306 25.8816L24.8612 26.3901ZM14.2694 13.9835C14.2484 14.127 14.2283 14.2713 14.2195 14.4121C14.1591 15.2088 14.1643 16.0377 14.1696 16.9148L14.1722 17.6693C14.1722 19.5531 14.7363 21.3043 15.8495 22.8734C16.5607 23.8813 17.4768 24.7962 18.5725 25.5917C19.2014 26.0515 19.8697 26.4644 20.5598 26.8178L20.7841 26.9304C20.9049 26.9895 21.1913 27.1212 21.1913 27.1212L21.2833 27.0799C21.7703 26.8617 22.7477 26.3779 23.825 25.5877C24.7911 24.8771 25.6048 24.096 26.2459 23.2659C27.3749 21.8276 28.0256 20.2151 28.1771 18.4747C28.2008 18.2092 28.2139 17.9406 28.2139 17.6685C28.2139 17.3599 28.2236 16.6175 28.2236 16.6175C28.2349 15.8421 28.2455 15.1088 28.1964 14.4108C28.192 14.2895 28.1824 14.173 28.1719 14.0579L28.1509 13.7932L28.1272 13.5976H14.3202L14.2694 13.9835ZM26.4797 24.3794C26.3098 24.5724 26.1285 24.761 25.9411 24.9479L25.7501 25.1379L25.9735 25.2887C26.0287 25.3265 26.0821 25.3687 26.1311 25.4174L26.9921 26.2754L27.6604 25.1031L27.5124 24.9845C27.2654 24.7858 27.0289 24.5811 26.8047 24.3659L26.6356 24.2034L26.4797 24.3794ZM15.2837 24.0252C14.9649 24.3594 14.6093 24.685 14.2274 24.9931L14.0811 25.1118L14.7074 26.2102L15.5193 25.4008C15.6787 25.2426 15.8828 25.1392 16.1096 25.1018L16.5265 25.0336L16.2357 24.7293C16.0203 24.5042 15.8145 24.2742 15.6209 24.0378L15.4597 23.8413L15.2837 24.0252ZM8.87156 24.5933L8.9968 24.6563C9.34189 24.9145 9.74391 25.1753 10.1582 25.4108C10.5103 25.6116 10.8037 25.7551 10.9955 25.8437L11.0892 25.8872L11.1838 25.8442C11.5771 25.6651 12.3671 25.2696 13.2333 24.6363C13.8228 24.2056 14.3518 23.7327 14.8072 23.2302L14.922 23.1037L14.8291 22.9607C14.8291 22.9607 14.6434 22.6495 14.5883 22.5543C14.5182 22.4344 14.4516 22.314 14.3877 22.1923L14.2397 21.8989C14.1819 21.7776 14.1249 21.6551 14.0724 21.5312C14.0277 21.4303 13.9857 21.3308 13.9471 21.2308C13.8972 21.1044 13.8508 20.977 13.807 20.8497C13.772 20.7475 13.7378 20.6475 13.7054 20.5463C13.6651 20.4146 13.6301 20.2807 13.595 20.1464L13.518 19.8487C13.4873 19.7083 13.461 19.564 13.4356 19.4205L13.384 19.1358C13.3612 18.9772 13.3445 18.8146 13.3288 18.6521L13.3034 18.4117C13.2859 18.1648 13.2754 17.9175 13.2754 17.6685L13.2727 16.9204C13.2701 16.5388 13.2701 16.1694 13.2736 15.8043L13.2867 15.0554L13.2946 14.8255H5.44346L5.42156 15.0236C5.33398 15.8095 5.33836 16.6931 5.34274 17.5476L5.34449 18.1301C5.34449 21.2674 7.24072 23.3541 8.87156 24.5685V24.5933ZM29.1231 15.2753C29.1292 15.7147 29.1274 16.1633 29.1204 16.6305C29.1204 16.6305 29.1108 17.3638 29.1108 17.6685C29.1108 17.9397 29.0985 18.2079 29.0784 18.473L29.0477 18.7312C29.0302 18.9094 29.0101 19.0863 28.9829 19.261L28.9242 19.5622C28.8936 19.7183 28.8629 19.8752 28.8253 20.0308L28.7386 20.3433C28.6974 20.4898 28.6545 20.6367 28.6054 20.7819C28.5783 20.8631 28.5485 20.9427 28.5196 21.0226C28.439 21.2369 28.3838 21.3769 28.3243 21.5155C28.2787 21.6199 28.2314 21.7233 28.1824 21.8272C28.1176 21.9628 28.0501 22.0984 27.9792 22.2323C27.9249 22.334 27.8697 22.4352 27.8119 22.5357C27.7357 22.6687 27.6551 22.8004 27.5711 22.9303C27.5089 23.0298 27.2759 23.3776 27.2759 23.3776L27.3206 23.641C27.6797 23.9939 28.0764 24.3281 28.5003 24.6346C29.3613 25.2678 30.1443 25.6642 30.5349 25.8437L30.6287 25.8872L30.7232 25.8442C31.1174 25.6651 31.9074 25.2696 32.7719 24.6363C34.4176 23.4302 36.3786 21.3217 36.3786 18.1292C36.3786 17.8202 36.383 17.5159 36.3874 17.2164C36.3979 16.4306 36.4084 15.7013 36.341 15.0263L36.3208 14.8255H29.1187L29.1231 15.2753ZM30.196 4.36437C29.7598 4.36437 29.3412 4.57039 29.074 4.91507L28.9645 5.05633L29.2045 5.35102C29.3201 5.50054 29.3893 5.5892 29.4524 5.68091L29.5479 5.82609C29.6363 5.96561 29.6932 6.05645 29.7449 6.14903L29.857 6.36027C29.9035 6.45241 29.949 6.5463 29.991 6.64235C30.0234 6.71494 30.055 6.78709 30.083 6.86011C30.1224 6.95878 30.1574 7.05875 30.1907 7.15871L30.2617 7.37908C30.2923 7.48644 30.3177 7.59467 30.3431 7.70333L30.3904 7.91543C30.4132 8.03627 30.4298 8.15797 30.4447 8.28054L30.4693 8.4657C30.4859 8.65042 30.4964 8.83732 30.4964 9.02596V9.68488H30.8117C32.2875 9.68488 33.279 11.4778 33.279 13.1525C33.279 13.199 33.2685 13.2472 33.2466 13.3055C33.2107 13.3881 33.1835 13.4289 33.1511 13.4615L32.5109 13.8714L33.1967 13.9353H39.8155L39.7437 13.6571C39.5414 12.88 39.0649 12.3162 38.6094 12.3162H37.9762C37.7292 12.3162 37.5278 12.1167 37.5278 11.8712V10.9562C37.5278 8.77212 35.8155 6.98529 33.6285 6.88836L33.3946 6.87793V8.10538C33.3946 8.35095 33.1932 8.55045 32.9462 8.55045C32.6992 8.55045 32.4977 8.35095 32.4977 8.10538L32.5004 5.77914C32.5004 4.99895 31.8654 4.36437 31.0841 4.36437H30.196ZM3.12595 12.3162C2.71693 12.3162 2.21331 12.9156 2.0031 13.6519L1.92165 13.9353H9.96988L9.31912 13.5159L9.24204 13.4511C9.22102 13.4285 9.19387 13.3881 9.17022 13.3381C9.13606 13.2481 9.12555 13.199 9.12555 13.1525C9.12555 11.5817 10.2256 9.68488 11.592 9.68488H11.9081V9.02596C11.9081 8.75908 11.9283 8.47961 11.9686 8.19578C12.0159 7.86936 12.0754 7.61509 12.1481 7.36561L12.177 7.26564C12.2515 7.02528 12.3443 6.79013 12.4512 6.56064L12.5037 6.44633C12.6132 6.22248 12.7376 6.00603 12.876 5.79566L12.9233 5.72481L12.9452 5.57964C12.8392 4.87551 12.2506 4.36437 11.5447 4.36437H10.6565C9.87529 4.36437 9.24029 4.99895 9.24029 5.77914L9.24117 8.10538C9.24117 8.35095 9.03972 8.55045 8.79273 8.55045C8.54574 8.55045 8.34429 8.35095 8.34429 8.10538V6.87793L8.10956 6.8888C5.92168 6.98659 4.20763 8.77343 4.20763 10.9562V11.8712C4.20763 12.1167 4.00618 12.3162 3.75919 12.3162H3.12595ZM11.592 10.575C11.0183 10.575 10.3369 11.4269 10.1039 12.4353L10.0417 12.7074H32.3637L32.3094 12.4405C32.0957 11.3943 31.4379 10.575 30.8117 10.575H30.048C29.801 10.575 29.5995 10.3755 29.5995 10.13V9.02596C29.5995 7.68073 29.074 6.41938 28.1202 5.47446C27.1988 4.5604 25.9709 4.04577 24.6615 4.02578L24.4337 4.0223V5.59007C24.4337 5.83565 24.2323 6.03515 23.9853 6.03515C23.7383 6.03515 23.5369 5.83565 23.5369 5.59007V2.78573C23.5369 1.79778 22.7285 0.993683 21.7352 0.993683H20.6632C19.6735 0.993683 18.8677 1.79778 18.8677 2.78573V5.59007C18.8677 5.83565 18.6662 6.03515 18.4192 6.03515C18.1723 6.03515 17.9708 5.83565 17.9708 5.59007V4.02317L17.7431 4.02665C16.1814 4.05142 14.6969 4.81336 13.7728 6.06558C13.4575 6.49414 13.2149 6.96486 13.0511 7.46557C12.9881 7.65812 12.9478 7.85676 12.9084 8.05626C12.8374 8.41962 12.805 8.72779 12.805 9.02596V10.13C12.805 10.3755 12.6036 10.575 12.3566 10.575H11.592Z" fill="white"/>
</svg>
