<svg width="30" height="30" viewBox="0 0 30 30" fill="none" xmlns="http://www.w3.org/2000/svg">
<g id="icon/device/access_time_24px">
<path id="icon/device/access_time_24px_2" fill-rule="evenodd" clip-rule="evenodd" d="M14.9875 2.5C8.0875 2.5 2.5 8.1 2.5 15C2.5 21.9 8.0875 27.5 14.9875 27.5C21.9 27.5 27.5 21.9 27.5 15C27.5 8.1 21.9 2.5 14.9875 2.5ZM15 25C9.475 25 5 20.525 5 15C5 9.475 9.475 5 15 5C20.525 5 25 9.475 25 15C25 20.525 20.525 25 15 25ZM14.65 8.75H14.725C15.225 8.75 15.625 9.15 15.625 9.65V15.325L20.4625 18.2C20.9 18.45 21.0375 19.0125 20.775 19.4375C20.525 19.8625 19.975 19.9875 19.55 19.7375L14.3625 16.625C13.975 16.4 13.75 15.9875 13.75 15.55V9.65C13.75 9.15 14.15 8.75 14.65 8.75Z" fill="#292338"/>
</g>
</svg>
