<svg width="52" height="45" viewBox="0 0 52 45" fill="none" xmlns="http://www.w3.org/2000/svg">
<path d="M8.88008 27.9973H1.72485V41.0807H8.88008V27.9973Z" fill="white"/>
<path d="M38.1862 28.0591V41.1424H33.8474L32.5534 38.8924C32.4011 38.6424 31.7922 38.2257 32.0966 38.2257L33.2384 37.3924C33.5429 37.3924 33.6952 37.8924 33.5429 37.5591L31.031 39.9757L31.6399 36.4757C31.6399 36.7257 32.2489 36.9757 32.0205 36.9757L31.3354 38.6424C31.1071 38.6424 30.8787 37.2257 30.9549 37.4757L37.1205 41.1424H13.9802V28.0591H21.7444V29.2257C21.7444 29.8924 22.0489 30.4757 22.5817 30.7257C23.7235 31.3091 24.8653 31.6424 26.0832 31.6424C27.225 31.6424 28.4429 31.3091 29.5847 30.7257C30.1175 30.4757 30.422 29.8924 30.422 29.2257V28.0591H38.1862Z" fill="white"/>
<path d="M50.4414 27.9973H43.2861V41.0807H50.4414V27.9973Z" fill="white"/>
<path d="M42.5249 27.1641V41.9141C42.5249 42.9141 41.916 43.7475 41.1548 43.7475H40.3936C39.6324 43.7475 39.0234 42.9141 39.0234 41.9141V27.1641C39.0234 26.1641 39.6324 25.3308 40.3936 25.3308H41.1548C41.916 25.3308 42.5249 26.1641 42.5249 27.1641Z" fill="white"/>
<path d="M13.219 27.1641V41.9141C13.219 42.9141 12.6101 43.7475 11.8489 43.7475H11.0877C10.3265 43.7475 9.71753 42.9141 9.71753 41.9141V27.1641C9.71753 26.1641 10.3265 25.3308 11.0877 25.3308H11.8489C12.5339 25.3308 13.219 26.1641 13.219 27.1641Z" fill="white"/>
<path d="M29.6608 22.2476V29.1642C29.6608 29.4976 29.5085 29.8309 29.2041 29.9142C27.0727 30.9976 25.0175 30.9976 22.8862 29.9142C22.6578 29.7476 22.4294 29.4976 22.4294 29.1642V22.2476H29.6608Z" fill="white"/>
<path d="M31.4877 19.8306V20.664C31.4877 21.164 31.1071 21.4973 30.7265 21.4973H21.5161C21.0594 21.4973 20.7549 21.0806 20.7549 20.664V19.8306C20.7549 19.3306 21.1355 18.9973 21.5161 18.9973H30.6504C31.1071 18.9973 31.4877 19.3306 31.4877 19.8306Z" fill="white"/>
<path d="M29.4324 16.1641V18.0808H22.7339V16.1641C22.7339 15.6641 23.1145 15.3308 23.4951 15.3308H28.6712C29.1279 15.3308 29.4324 15.7475 29.4324 16.1641Z" fill="white"/>
<path d="M27.225 6.16419V6.66419C26.8444 6.66419 26.4638 6.66419 26.0832 6.66419C25.7026 6.66419 25.322 6.66419 24.9414 6.66419V6.16419C24.9414 5.41419 25.4742 4.91419 26.1593 4.91419C26.7683 4.83086 27.225 5.41419 27.225 6.16419Z" fill="white"/>
<path d="M27.2249 10.9976V14.4976H24.8652V10.9976C25.2458 10.9976 25.6264 10.9976 26.007 10.9976C26.4637 10.9142 26.8443 10.9142 27.2249 10.9976Z" fill="white"/>
<path d="M34.3041 6.83081V10.6641C31.9444 10.3308 29.5847 10.1641 27.225 10.0808C26.4638 10.0808 25.6265 10.0808 24.8653 10.0808C22.5056 10.0808 20.1459 10.3308 17.8623 10.6641V6.83081C20.222 7.16414 22.5817 7.41414 24.8653 7.49748C25.6265 7.49748 26.4638 7.49748 27.225 7.49748C29.5847 7.49748 31.9444 7.24748 34.3041 6.83081Z" fill="white"/>
</svg>
